<?xml version="1.0" standalone="no"?>
<!DOCTYPE svg PUBLIC "-//W3C//DTD SVG 20010904//EN"
 "http://www.w3.org/TR/2001/REC-SVG-20010904/DTD/svg10.dtd">
<svg version="1.0" xmlns="http://www.w3.org/2000/svg"
 width="96.000000pt" height="96.000000pt" viewBox="0 0 96.000000 96.000000"
 preserveAspectRatio="xMidYMid meet">

<g transform="translate(0.000000,96.000000) scale(0.100000,-0.100000)"
fill="#717171" stroke="none">
<path d="M225 882 c-71 -45 -70 -40 -73 -293 l-3 -229 -30 0 c-26 0 -29 -3
-29 -30 l0 -30 190 0 191 0 -23 -30 -22 -30 -168 0 -168 0 0 -30 0 -30 142 0
142 0 -29 -30 c-29 -30 -29 -30 -142 -30 l-113 0 0 -30 0 -30 418 2 417 3 0
145 0 145 -42 3 -43 3 0 60 c0 60 6 69 29 47 10 -11 16 -8 31 12 l18 24 -39
30 -39 30 0 78 0 78 -29 0 c-29 0 -30 -2 -33 -51 l-3 -52 -82 67 c-45 36 -86
66 -91 66 -5 0 -47 -27 -93 -61 l-84 -60 -5 95 c-5 94 -6 96 -41 132 -46 45
-107 56 -154 26z m110 -67 c25 -24 25 -24 25 -240 l0 -215 -75 0 -75 0 0 215
c0 216 0 216 25 240 13 14 36 25 50 25 14 0 37 -11 50 -25z m355 -207 l90 -72
0 -88 0 -88 -45 0 -44 0 -3 73 -3 72 -65 3 c-108 5 -110 3 -110 -78 l0 -70
-45 0 -45 0 0 95 0 94 88 65 c48 36 88 65 90 66 1 0 43 -32 92 -72z m-60 -203
c0 -43 -1 -45 -30 -45 -29 0 -30 2 -30 45 0 43 1 45 30 45 29 0 30 -2 30 -45z
m-9 -142 c-16 -21 -52 -62 -78 -91 -46 -52 -50 -53 -94 -50 l-47 3 76 88 76
87 49 0 49 0 -31 -37z m180 0 c-16 -21 -52 -62 -78 -91 -46 -52 -50 -53 -94
-50 l-47 3 76 88 76 87 49 0 49 0 -31 -37z m69 -83 l0 -60 -56 0 -56 0 52 60
c29 33 54 60 56 60 2 0 4 -27 4 -60z"/>
</g>
</svg>
