<?xml version="1.0" standalone="no"?>
<!DOCTYPE svg PUBLIC "-//W3C//DTD SVG 20010904//EN"
 "http://www.w3.org/TR/2001/REC-SVG-20010904/DTD/svg10.dtd">
<svg version="1.0" xmlns="http://www.w3.org/2000/svg"
 width="96.000000pt" height="96.000000pt" viewBox="0 0 96.000000 96.000000"
 preserveAspectRatio="xMidYMid meet">

<g transform="translate(0.000000,96.000000) scale(0.100000,-0.100000)"
fill="#717171" stroke="none">
<path d="M210 817 l0 -82 -61 -38 c-57 -36 -89 -42 -89 -17 0 5 -13 10 -30 10
-21 0 -30 -5 -30 -16 0 -20 54 -74 74 -74 14 0 16 -25 16 -210 l0 -210 -30 0
c-27 0 -30 -3 -30 -30 0 -27 3 -30 30 -30 27 0 30 -3 30 -30 0 -27 3 -30 30
-30 27 0 30 3 30 30 0 27 3 30 30 30 27 0 30 -3 30 -30 0 -27 3 -30 30 -30 27
0 30 3 30 30 l0 30 210 0 210 0 0 -30 c0 -27 3 -30 30 -30 27 0 30 3 30 30 0
27 3 30 30 30 27 0 30 -3 30 -30 0 -27 3 -30 30 -30 27 0 30 3 30 30 0 27 3
30 30 30 27 0 30 3 30 30 0 27 -3 30 -30 30 l-30 0 0 210 c0 185 2 210 16 210
20 0 74 54 74 74 0 21 -56 22 -64 1 -8 -22 -18 -19 -85 23 l-61 37 0 83 0 82
-30 0 c-27 0 -30 -3 -30 -30 l0 -30 -210 0 -210 0 0 30 c0 27 -3 30 -30 30
l-30 0 0 -83z m480 -68 c0 -22 9 -40 31 -60 l31 -29 -273 0 -274 0 33 26 c25
20 32 33 32 60 l0 34 210 0 210 0 0 -31z m120 -179 l0 -30 -330 0 -330 0 0 30
0 30 330 0 330 0 0 -30z m-600 -240 l0 -150 -30 0 -30 0 0 150 0 150 30 0 30
0 0 -150z m480 0 l0 -150 -45 0 -45 0 0 108 c0 71 -4 112 -12 120 -16 16 -200
16 -216 0 -8 -8 -12 -49 -12 -120 l0 -108 -45 0 -45 0 0 150 0 150 210 0 210
0 0 -150z m120 0 l0 -150 -30 0 -30 0 0 150 0 150 30 0 30 0 0 -150z m-270
-60 l0 -90 -60 0 -60 0 0 90 0 90 60 0 60 0 0 -90z"/>
</g>
</svg>
