<?xml version="1.0" standalone="no"?>
<!DOCTYPE svg PUBLIC "-//W3C//DTD SVG 20010904//EN"
 "http://www.w3.org/TR/2001/REC-SVG-20010904/DTD/svg10.dtd">
<svg version="1.0" xmlns="http://www.w3.org/2000/svg"
 width="512.000000pt" height="512.000000pt" viewBox="0 0 512.000000 512.000000"
 preserveAspectRatio="xMidYMid meet">

<g transform="translate(0.000000,512.000000) scale(0.100000,-0.100000)"
fill="#000000" stroke="none">
<path d="M2258 4925 c-427 -59 -808 -217 -1153 -478 -103 -79 -309 -280 -392
-382 -176 -218 -325 -489 -412 -750 -88 -266 -121 -473 -121 -755 0 -282 33
-490 122 -755 113 -341 292 -636 547 -898 344 -355 761 -585 1234 -681 196
-40 309 -49 541 -43 302 7 407 30 440 96 33 66 26 124 -20 173 -45 46 -78 51
-201 33 -224 -35 -522 -20 -763 38 l-95 22 -13 75 c-20 116 -10 297 21 388 43
125 81 176 262 357 233 232 267 299 266 522 -1 315 -136 642 -350 846 -204
195 -430 235 -666 118 -50 -25 -131 -81 -214 -148 -230 -187 -293 -223 -385
-223 -118 0 -254 99 -376 275 l-48 71 14 84 c147 858 807 1535 1659 1705 203
40 524 53 512 21 -14 -35 -48 -173 -63 -251 -26 -135 -24 -363 4 -477 69 -279
255 -484 471 -519 123 -19 241 20 421 141 149 100 210 125 305 125 79 0 81 -1
165 -53 129 -79 272 -122 412 -122 67 0 63 4 128 -161 66 -170 108 -335 130
-513 6 -49 18 -102 26 -118 47 -91 201 -90 249 1 20 40 19 115 -5 258 -166
975 -910 1747 -1879 1949 -214 44 -564 57 -773 29z m947 -376 c250 -82 461
-197 670 -366 109 -88 253 -234 330 -333 63 -82 58 -81 -157 39 -77 43 -182
65 -279 57 -140 -11 -233 -49 -428 -176 -141 -91 -186 -108 -243 -91 -87 26
-183 171 -214 321 -27 138 -9 329 51 527 l26 85 47 -7 c26 -4 114 -29 197 -56z
m-1371 -1933 c105 -32 219 -154 301 -321 54 -112 82 -210 97 -345 10 -93 9
-112 -6 -165 -17 -57 -26 -68 -175 -215 -173 -171 -232 -246 -291 -373 -60
-127 -83 -236 -84 -394 -1 -73 -5 -133 -10 -133 -13 0 -167 84 -235 128 -168
109 -369 289 -493 439 -239 292 -410 687 -453 1048 -3 28 -8 60 -11 73 -4 19
7 13 74 -36 203 -151 409 -170 627 -59 60 30 147 93 269 195 191 159 274 193
390 158z"/>
<path d="M3820 2520 c-378 -51 -694 -307 -823 -665 -31 -86 -57 -236 -57 -325
0 -328 199 -696 570 -1053 132 -127 268 -240 332 -275 52 -28 136 -29 193 -3
86 40 334 257 474 416 220 247 342 453 404 679 19 69 22 105 21 246 0 150 -3
173 -28 255 -127 422 -487 707 -917 729 -57 2 -133 1 -169 -4z m254 -294 c306
-59 537 -307 576 -620 28 -225 -71 -465 -306 -745 -81 -97 -248 -260 -343
-334 l-60 -47 -88 73 c-324 270 -546 577 -609 843 -23 100 -15 244 22 353 44
132 133 258 238 337 172 130 369 178 570 140z"/>
<path d="M3845 1742 c-76 -36 -125 -115 -125 -202 0 -126 94 -222 219 -222 70
-1 117 19 165 68 97 100 78 261 -41 342 -51 35 -158 42 -218 14z"/>
</g>
</svg>
